<svg xmlns="http://www.w3.org/2000/svg" width="108" viewBox="0 0 108 108" height="108" version="1.0"><path fill="#FFF" d="M 54.027344 13.902344 C 31.867188 13.902344 13.902344 31.867188 13.902344 54.027344 C 13.902344 76.1875 31.867188 94.152344 54.027344 94.152344 C 76.1875 94.152344 94.152344 76.1875 94.152344 54.027344 C 94.152344 31.867188 76.1875 13.902344 54.027344 13.902344"/><g><g><g><path d="M 3.171875 0 L 3.171875 -14.546875 L 0.484375 -14.546875 L 0.484375 -18.09375 L 3.171875 -18.09375 L 3.171875 -19.625 C 3.171875 -21.65625 3.753906 -23.226562 4.921875 -24.34375 C 6.085938 -25.46875 7.71875 -26.03125 9.8125 -26.03125 C 10.476562 -26.03125 11.296875 -25.914062 12.265625 -25.6875 L 12.21875 -21.953125 C 11.820312 -22.046875 11.332031 -22.09375 10.75 -22.09375 C 8.9375 -22.09375 8.03125 -21.242188 8.03125 -19.546875 L 8.03125 -18.09375 L 11.625 -18.09375 L 11.625 -14.546875 L 8.03125 -14.546875 L 8.03125 0 Z M 3.171875 0" transform="translate(33.002 65.946)"/></g></g></g><g><g><g><path d="M 18.15625 -8.875 C 18.15625 -5.976562 17.535156 -3.71875 16.296875 -2.09375 C 15.054688 -0.476562 13.328125 0.328125 11.109375 0.328125 C 9.148438 0.328125 7.585938 -0.421875 6.421875 -1.921875 L 6.203125 0 L 1.859375 0 L 1.859375 -25.671875 L 6.6875 -25.671875 L 6.6875 -16.46875 C 7.800781 -17.769531 9.265625 -18.421875 11.078125 -18.421875 C 13.285156 -18.421875 15.015625 -17.609375 16.265625 -15.984375 C 17.523438 -14.367188 18.15625 -12.085938 18.15625 -9.140625 Z M 13.328125 -9.234375 C 13.328125 -11.054688 13.035156 -12.390625 12.453125 -13.234375 C 11.867188 -14.078125 11.003906 -14.5 9.859375 -14.5 C 8.328125 -14.5 7.269531 -13.867188 6.6875 -12.609375 L 6.6875 -5.46875 C 7.28125 -4.195312 8.347656 -3.5625 9.890625 -3.5625 C 11.453125 -3.5625 12.476562 -4.332031 12.96875 -5.875 C 13.207031 -6.601562 13.328125 -7.722656 13.328125 -9.234375 Z M 13.328125 -9.234375" transform="translate(45.27 65.946)"/></g></g></g><g><g><g><path d="M 2.109375 -2.375 C 2.109375 -3.144531 2.363281 -3.769531 2.875 -4.25 C 3.394531 -4.726562 4.046875 -4.96875 4.828125 -4.96875 C 5.617188 -4.96875 6.273438 -4.726562 6.796875 -4.25 C 7.316406 -3.769531 7.578125 -3.144531 7.578125 -2.375 C 7.578125 -1.613281 7.316406 -0.992188 6.796875 -0.515625 C 6.285156 -0.046875 5.628906 0.1875 4.828125 0.1875 C 4.035156 0.1875 3.382812 -0.046875 2.875 -0.515625 C 2.363281 -0.992188 2.109375 -1.613281 2.109375 -2.375 Z M 2.109375 -2.375" transform="translate(64.542 65.946)"/></g></g></g></svg>